Genre: Drama | Romance
Language:English  http://www.imdb.com/title/tt1120985/
Source:Demedic Thx.


Format : Matroska
File size : 1.06 GiB
Duration : 1h 52mn
Overall bit rate : 1 356 Kbps


Video
Format settings, CABAC : Yes
Format settings, ReFrames : 4 frames
Format settings, GOP : M=4, N=16
Codec ID : V_MPEG4/ISO/AVC
Duration : 1h 52mn
Bit rate : 899 Kbps
Width : 720 pixels
Height : 390 pixels
Display aspect ratio : 16:9
Frame rate mode : Variable
Frame rate : 23.976 fps
Color space : YUV
Chroma subsampling : 4:2:0
Bit depth : 8 bits
Scan type : Progressive
Bits/(Pixel*Frame) : 0.134
Stream size : 706 MiB (65%)
Writing library : x264


Audio
ID : 2
Format : AC-3
Format/Info : Audio Coding 3
Mode extension : CM (complete main)
Codec ID : A_AC3
Duration : 1h 52mn
Bit rate mode : Constant
Bit rate : 448 Kbps
Channel(s) : 6 channels
Channel positions : Front: L C R, Side: L R, LFE
Sampling rate : 48.0 KHz
Bit depth : 16 bits
Video delay : -1mn 5s
Stream size : 359 MiB (33%)
Language : English


Plot:
The film centers on a contemporary married couple, charting their evolution over a span of years by cross-cutting between time periods.
 
http://shareimage.org/images/3s6j481mugkjhdnq9pn.png 
http://shareimage.org/images/852nenaf9t8hoi4aeue1.png 
http://shareimage.org/images/enifogyrzf9jfjpfh1sm.png